<svg xmlns="http://www.w3.org/2000/svg" version="1.0" width="677.000000pt" height="453.000000pt" viewBox="0 0 677.000000 453.000000" preserveAspectRatio="xMidYMid meet">

<g transform="translate(0.000000,453.000000) scale(0.100000,-0.100000)" fill="#f0fdf4" stroke="none">
<path d="M1556 4015 c-62 -17 -95 -41 -123 -91 -40 -71 -44 -139 -41 -695 l3 -525 30 -60 c27 -52 37 -62 90 -89 l60 -30 465 -5 465 -5 3 -239 c2 -185 -1 -241 -10 -248 -7 -4 -95 -8 -195 -8 l-183 0 0 -84 0 -85 43 -6 c23 -3 258 -5 522 -3 l480 3 3 88 3 87 -195 0 c-107 0 -201 3 -210 6 -14 5 -16 37 -16 249 0 212 2 244 16 249 20 8 1148 8 1168 0 14 -5 16 -45 16 -339 0 -294 2 -334 16 -339 20 -8 788 -8 808 0 13 5 16 23 16 90 l0 84 -284 0 c-156 0 -291 3 -300 6 -14 5 -16 36 -16 240 l0 234 505 0 505 0 -2 -502 -3 -503 -1538 -3 -1538 -2 3 -123 3 -122 1495 -3 c934 -1 1519 1 1559 7 35 6 84 20 110 33 38 19 51 34 76 83 l30 60 0 570 c0 521 -2 574 -18 616 -20 53 -57 92 -108 113 -68 28 -202 36 -641 36 l-438 0 0 209 c0 181 2 210 16 215 9 3 144 6 300 6 l284 0 0 85 0 85 -396 0 -396 0 -65 -62 c-36 -35 -167 -177 -291 -315 -125 -140 -234 -253 -243 -253 -19 0 -472 424 -477 446 -3 11 19 14 122 14 l126 0 0 85 0 85 -525 0 -526 0 3 -82 3 -83 190 -5 190 -5 0 -205 0 -205 -457 -3 -458 -2 0 505 0 505 1680 0 1680 0 0 125 0 125 -1672 -1 c-1374 -1 -1682 -3 -1722 -14z m1414 -1081 c107 -102 197 -190 198 -195 2 -6 -77 -8 -205 -7 l-208 3 -3 193 c-2 150 0 192 10 192 7 0 101 -84 208 -186z m980 -19 l0 -185 -170 0 c-93 0 -170 3 -170 6 0 16 317 364 332 364 4 0 8 -83 8 -185z" fill="#f0fdf4"/>
<path d="M353 727 c-4 -6 -7 -452 -4 -514 1 -9 18 -13 51 -13 l50 0 0 264 0 264 -46 4 c-25 2 -48 0 -51 -5z" fill="#f0fdf4"/>
<path d="M1717 733 c-4 -3 -7 -125 -7 -270 l0 -263 50 0 50 0 0 264 0 264 -31 6 c-40 8 -54 8 -62 -1z" fill="#f0fdf4"/>
<path d="M2340 732 c-6 -2 -10 -24 -10 -48 l0 -44 273 2 272 3 3 43 c2 29 -1 42 -10 42 -239 3 -520 4 -528 2z" fill="#f0fdf4"/>
<path d="M3403 734 c-10 -4 -13 -68 -13 -270 l0 -265 53 3 52 3 3 263 2 262 -22 0 c-13 0 -32 2 -43 5 -11 2 -26 2 -32 -1z" fill="#f0fdf4"/>
<path d="M3568 734 c-5 -4 -8 -27 -8 -51 l0 -43 190 0 190 0 0 45 0 45 -139 0 c-76 0 -158 3 -182 6 -24 3 -47 2 -51 -2z" fill="#f0fdf4"/>
<path d="M4687 734 c-4 -4 -7 -27 -7 -51 l0 -43 193 2 192 3 3 43 3 42 -159 0 c-88 0 -172 3 -188 6 -16 3 -32 2 -37 -2z" fill="#f0fdf4"/>
<path d="M6317 734 c-4 -4 -7 -126 -7 -271 l0 -263 50 0 50 0 0 224 c0 123 2 236 5 252 3 16 2 34 -2 41 -9 13 -86 27 -96 17z" fill="#f0fdf4"/>
<path d="M532 697 l-32 -33 120 -119 120 -120 37 38 38 38 -120 114 c-66 63 -122 115 -126 115 -3 0 -19 -15 -37 -33z" fill="#f0fdf4"/>
<path d="M880 706 c-14 -12 -40 -39 -58 -58 l-34 -36 33 -36 32 -37 59 58 c32 31 58 62 58 68 0 11 -51 65 -61 65 -2 0 -15 -11 -29 -24z" fill="#f0fdf4"/>
<path d="M1032 468 l3 -263 53 -3 52 -3 0 265 0 266 -55 0 -55 0 2 -262z" fill="#f0fdf4"/>
<path d="M4512 578 l3 -153 50 0 50 0 3 153 3 152 -56 0 -56 0 3 -152z" fill="#f0fdf4"/>
<path d="M5750 465 l0 -265 50 0 50 0 0 265 0 265 -50 0 -50 0 0 -265z" fill="#f0fdf4"/>
<path d="M2550 391 l0 -191 50 0 c63 0 62 -4 58 210 l-3 165 -52 3 -53 3 0 -190z" fill="#f0fdf4"/>
<path d="M3564 506 c-3 -8 -4 -29 -2 -48 l3 -33 90 0 90 0 0 45 0 45 -88 3 c-69 2 -88 0 -93 -12z" fill="#f0fdf4"/>
<path d="M4684 506 c-3 -8 -4 -29 -2 -48 l3 -33 163 -3 163 -3 -3 48 -3 48 -158 3 c-129 2 -158 0 -163 -12z" fill="#f0fdf4"/>
<path d="M5075 508 c-3 -8 -4 -79 -3 -158 l3 -145 50 0 50 0 0 155 0 155 -48 3 c-33 2 -49 -1 -52 -10z" fill="#f0fdf4"/>
<path d="M5914 506 c-3 -8 -4 -29 -2 -48 l3 -33 162 -3 162 -2 7 24 c3 13 4 35 2 47 -3 24 -3 24 -166 27 -133 2 -163 0 -168 -12z" fill="#f0fdf4"/>
<path d="M3567 294 c-4 -4 -7 -27 -7 -51 l0 -43 191 0 190 0 -3 48 -3 47 -181 3 c-99 1 -183 -1 -187 -4z" fill="#f0fdf4"/>
<path d="M4514 286 c-3 -8 -4 -29 -2 -48 l3 -33 248 -3 248 -2 -3 47 -3 48 -243 3 c-202 2 -243 0 -248 -12z" fill="#f0fdf4"/>
</g>
</svg>